<svg width="16" height="13" viewBox="0 0 16 13" fill="none" xmlns="http://www.w3.org/2000/svg">
<path fill-rule="evenodd" clip-rule="evenodd" d="M11.3333 0.875C11.5023 0.875 11.6642 0.943516 11.7819 1.06491L15.1153 4.50241C15.3556 4.75021 15.3495 5.14589 15.1017 5.38619C14.8539 5.62648 14.4582 5.62039 14.2179 5.37259L11.9583 3.04233L11.9583 11.5C11.9583 11.8452 11.6784 12.125 11.3333 12.125C10.9881 12.125 10.7083 11.8452 10.7083 11.5L10.7083 3.04233L8.44861 5.37259C8.20831 5.62039 7.81263 5.62648 7.56483 5.38619C7.31702 5.14589 7.31094 4.75021 7.55123 4.50241L10.8846 1.06491C11.0023 0.943516 11.1642 0.875 11.3333 0.875ZM4.66659 0.875C5.01176 0.875 5.29158 1.15482 5.29158 1.5L5.29159 9.95767L7.55123 7.62741C7.79152 7.37961 8.18721 7.37352 8.43501 7.61381C8.68281 7.85411 8.6889 8.24979 8.44861 8.49759L5.11527 11.9351C4.99756 12.0565 4.83568 12.125 4.66659 12.125C4.49749 12.125 4.33561 12.0565 4.2179 11.9351L0.884565 8.49759C0.64427 8.24979 0.650358 7.85411 0.898161 7.61381C1.14596 7.37352 1.54165 7.37961 1.78194 7.62741L4.04159 9.95767L4.04159 1.5C4.04159 1.15482 4.32141 0.875 4.66659 0.875Z" fill="#4A5B6D"/>
</svg>
