<svg width="18" height="16" viewBox="0 0 18 16" fill="none" xmlns="http://www.w3.org/2000/svg">
<path fill-rule="evenodd" clip-rule="evenodd" d="M3.68705 1.68675C2.30455 2.31869 1.29175 3.82179 1.29175 5.61417C1.29175 7.44534 2.0411 8.85679 3.11532 10.0664C4.00069 11.0634 5.07244 11.8896 6.11769 12.6954C6.36594 12.8868 6.61271 13.0771 6.85512 13.2682C7.29348 13.6137 7.68452 13.917 8.06142 14.1373C8.43853 14.3576 8.74208 14.4583 9.00008 14.4583C9.25808 14.4583 9.56163 14.3576 9.93874 14.1373C10.3156 13.917 10.7067 13.6137 11.145 13.2682C11.3875 13.0771 11.6342 12.8868 11.8825 12.6954C12.9277 11.8896 13.9995 11.0634 14.8848 10.0664C15.9591 8.85679 16.7084 7.44534 16.7084 5.61417C16.7084 3.82179 15.6956 2.31869 14.3131 1.68675C12.97 1.07282 11.1654 1.23541 9.45039 3.0172C9.33256 3.13962 9.16998 3.20879 9.00008 3.20879C8.83018 3.20879 8.6676 3.13962 8.54978 3.0172C6.8348 1.23541 5.03014 1.07282 3.68705 1.68675ZM9.00008 1.71561C7.07337 -0.00820599 4.91588 -0.24935 3.16738 0.549894C1.32068 1.39403 0.041748 3.35412 0.041748 5.61417C0.041748 7.83545 0.967162 9.52997 2.18068 10.8964C3.15248 11.9907 4.34193 12.9066 5.39244 13.7154C5.63057 13.8988 5.86156 14.0766 6.08126 14.2498C6.50813 14.5863 6.96637 14.9452 7.43077 15.2165C7.89496 15.4878 8.42475 15.7083 9.00008 15.7083C9.57541 15.7083 10.1052 15.4878 10.5694 15.2165C11.0338 14.9452 11.492 14.5863 11.9189 14.2498C12.1386 14.0766 12.3696 13.8988 12.6077 13.7154C13.6582 12.9066 14.8477 11.9907 15.8195 10.8964C17.033 9.52997 17.9584 7.83545 17.9584 5.61417C17.9584 3.35412 16.6795 1.39403 14.8328 0.549894C13.0843 -0.24935 10.9268 -0.00820599 9.00008 1.71561Z" fill="#4A5B6D"/>
</svg>
