<svg width="18" height="18" viewBox="0 0 18 18" fill="none" xmlns="http://www.w3.org/2000/svg">
<path fill-rule="evenodd" clip-rule="evenodd" d="M8.58341 1.2915C4.55634 1.2915 1.29175 4.55609 1.29175 8.58317C1.29175 12.6102 4.55634 15.8748 8.58341 15.8748C12.6105 15.8748 15.8751 12.6102 15.8751 8.58317C15.8751 4.55609 12.6105 1.2915 8.58341 1.2915ZM0.041748 8.58317C0.041748 3.86574 3.86598 0.0415039 8.58341 0.0415039C13.3008 0.0415039 17.1251 3.86574 17.1251 8.58317C17.1251 13.3006 13.3008 17.1248 8.58341 17.1248C3.86598 17.1248 0.041748 13.3006 0.041748 8.58317ZM15.2248 15.2246C15.4689 14.9805 15.8646 14.9805 16.1087 15.2246L17.7754 16.8912C18.0194 17.1353 18.0194 17.531 17.7754 17.7751C17.5313 18.0192 17.1356 18.0192 16.8915 17.7751L15.2248 16.1084C14.9807 15.8644 14.9807 15.4686 15.2248 15.2246Z" fill="#6B7B8B"/>
</svg>
