<svg width="20" height="21" viewBox="0 0 20 21" fill="none" xmlns="http://www.w3.org/2000/svg">
<path fill-rule="evenodd" clip-rule="evenodd" d="M18.9583 6.3335C18.9583 6.67867 18.6784 6.9585 18.3333 6.9585L1.66659 6.9585C1.32141 6.9585 1.04159 6.67867 1.04159 6.3335C1.04159 5.98832 1.32141 5.7085 1.66659 5.7085L18.3333 5.7085C18.6784 5.7085 18.9583 5.98832 18.9583 6.3335Z" fill="#4A5B6D"/>
<path fill-rule="evenodd" clip-rule="evenodd" d="M16.4583 10.5C16.4583 10.8452 16.1784 11.125 15.8333 11.125L4.16658 11.125C3.82141 11.125 3.54158 10.8452 3.54158 10.5C3.54158 10.1548 3.82141 9.875 4.16658 9.875L15.8333 9.875C16.1784 9.875 16.4583 10.1548 16.4583 10.5Z" fill="#4A5B6D"/>
<path fill-rule="evenodd" clip-rule="evenodd" d="M13.9583 14.6665C13.9583 15.0117 13.6784 15.2915 13.3333 15.2915L6.66659 15.2915C6.32141 15.2915 6.04159 15.0117 6.04159 14.6665C6.04159 14.3213 6.32141 14.0415 6.66659 14.0415H13.3333C13.6784 14.0415 13.9583 14.3213 13.9583 14.6665Z" fill="#4A5B6D"/>
</svg>
